<svg width="74" height="48" viewBox="0 0 74 48" fill="none" xmlns="http://www.w3.org/2000/svg">
<rect x="2.5" y="2.5" width="69" height="43" rx="9.5" fill="white" stroke="black" stroke-width="5"/>
<path d="M25.2059 37.384C23.7125 37.384 22.3045 37.1173 20.9819 36.584C19.6805 36.0293 18.5499 35.2507 17.5899 34.248C16.6512 33.2453 15.9472 32.0613 15.4779 30.696L19.5419 28.872C20.1392 30.1733 20.9605 31.1973 22.0059 31.944C23.0725 32.6907 24.2459 33.064 25.5259 33.064C26.2085 33.064 26.7952 32.9573 27.2859 32.744C27.7765 32.5307 28.1605 32.2427 28.4379 31.88C28.7152 31.496 28.8539 31.048 28.8539 30.536C28.8539 29.9813 28.6832 29.512 28.3419 29.128C28.0005 28.7227 27.4672 28.4027 26.7419 28.168L22.0699 26.632C20.1712 26.0133 18.7419 25.1387 17.7819 24.008C16.8219 22.856 16.3419 21.48 16.3419 19.88C16.3419 18.472 16.6832 17.2347 17.3659 16.168C18.0699 15.1013 19.0405 14.2693 20.2779 13.672C21.5365 13.0747 22.9765 12.776 24.5979 12.776C26.0272 12.776 27.3499 13.0213 28.5659 13.512C29.7819 14.0027 30.8272 14.696 31.7019 15.592C32.5979 16.488 33.2699 17.5653 33.7179 18.824L29.6859 20.648C29.2379 19.5387 28.5659 18.6747 27.6699 18.056C26.7739 17.416 25.7499 17.096 24.5979 17.096C23.9365 17.096 23.3499 17.2027 22.8379 17.416C22.3259 17.6293 21.9312 17.9387 21.6539 18.344C21.3765 18.728 21.2379 19.176 21.2379 19.688C21.2379 20.2427 21.4192 20.7333 21.7819 21.16C22.1445 21.5653 22.6885 21.8853 23.4139 22.12L27.9899 23.592C29.9099 24.2107 31.3392 25.0747 32.2779 26.184C33.2379 27.2933 33.7179 28.648 33.7179 30.248C33.7179 31.6347 33.3552 32.872 32.6299 33.96C31.9045 35.0267 30.9019 35.8693 29.6219 36.488C28.3632 37.0853 26.8912 37.384 25.2059 37.384ZM37.2526 37V13.16H42.2126V23.464H51.4926V13.16H56.4526V37H51.4926V27.784H42.2126V37H37.2526Z" fill="black"/>
</svg>
